<svg xmlns="http://www.w3.org/2000/svg" xmlns:xlink="http://www.w3.org/1999/xlink" width="1050" height="667.88"><rect width="1050" height="667.88" rx="5" ry="5" class="a"/><svg y="0%" x="0%"><circle cx="20" cy="20" r="6" fill="#ff5f58"/><circle cx="40" cy="20" r="6" fill="#ffbd2e"/><circle cx="60" cy="20" r="6" fill="#18c132"/></svg><svg height="607.88" viewBox="0 0 101 60.788" width="1010" x="15" xmlns="http://www.w3.org/2000/svg" xmlns:xlink="http://www.w3.org/1999/xlink" y="50"><style>@keyframes l{0%{transform:translateX(0)}2.1%{transform:translateX(-101px)}9.4%{transform:translateX(-202px)}10.8%{transform:translateX(-404px)}10.9%{transform:translateX(-505px)}11.3%{transform:translateX(-909px)}11.5%{transform:translateX(-1212px)}15.1%{transform:translateX(-1313px)}16.2%{transform:translateX(-1414px)}16.7%{transform:translateX(-1515px)}17.3%{transform:translateX(-1616px)}17.8%{transform:translateX(-1717px)}19.3%{transform:translateX(-2222px)}19.4%{transform:translateX(-2525px)}21.4%{transform:translateX(-2626px)}22.7%{transform:translateX(-2727px)}23.7%{transform:translateX(-2828px)}24.4%{transform:translateX(-2929px)}25%{transform:translateX(-3030px)}25.7%{transform:translateX(-3131px)}33.7%{transform:translateX(-3232px)}34.9%{transform:translateX(-3333px)}35.7%{transform:translateX(-3434px)}37%{transform:translateX(-3535px)}37.6%{transform:translateX(-3636px)}40.7%{transform:translateX(-3737px)}41.3%{transform:translateX(-3838px)}42.3%{transform:translateX(-3939px)}43.6%{transform:translateX(-4040px)}45.1%{transform:translateX(-4141px)}45.6%{transform:translateX(-4242px)}46.7%{transform:translateX(-4343px)}47.7%{transform:translateX(-4444px)}49.8%{transform:translateX(-4747px)}50.4%{transform:translateX(-5151px)}50.5%{transform:translateX(-5454px)}53.6%{transform:translateX(-5555px)}54.5%{transform:translateX(-5656px)}55.1%{transform:translateX(-5757px)}55.7%{transform:translateX(-5858px)}56.2%{transform:translateX(-5959px)}58.1%{transform:translateX(-6464px)}58.2%{transform:translateX(-6767px)}59.7%{transform:translateX(-6868px)}61.4%{transform:translateX(-6969px)}63.7%{transform:translateX(-7070px)}64.1%{transform:translateX(-7171px)}68.7%{transform:translateX(-7272px)}69.9%{transform:translateX(-7373px)}71.5%{transform:translateX(-7474px)}73.3%{transform:translateX(-7575px)}73.8%{transform:translateX(-7676px)}75.9%{transform:translateX(-7777px)}83.3%{transform:translateX(-7878px)}83.8%{transform:translateX(-7979px)}87.7%{transform:translateX(-8282px)}88.1%{transform:translateX(-8686px)}88.2%{transform:translateX(-8989px)}94.3%{transform:translateX(-9090px)}96.1%{transform:translateX(-9191px)}97.4%{transform:translateX(-9292px)}98.1%{transform:translateX(-9393px)}to{transform:translateX(-9696px)}}.a{fill:#282d35}.f{fill:#b9c0cb;white-space:pre}.g{fill:#a8cc8c}.g,.h,.i,.n{white-space:pre}.h{fill:#e88388;font-weight:700}.i,.n{fill:#6f7783}.n{fill:#b9c0cb;text-decoration:underline}</style><g font-family="Monaco,Consolas,Menlo,'Bitstream Vera Sans Mono','Powerline Symbols',monospace" font-size="1.67"><defs><symbol id="1"><text y="1.67" class="f">%</text><text x="2.004" y="1.67" class="g">droid</text><text x="8.016" y="1.67" class="f">version</text><text x="16.032" y="1.67" class="f">2.3</text></symbol><symbol id="2"><text y="1.67" class="f">+---------+-------------+-----------+--------------+</text></symbol><symbol id="3"><text y="1.67" class="f">|</text><text x="2.004" y="1.67" class="f">VERSION</text><text x="10.02" y="1.67" class="f">|</text><text x="12.024" y="1.67" class="f">CODE_NAME</text><text x="24.048" y="1.67" class="f">|</text><text x="26.052" y="1.67" class="f">API_LEVEL</text><text x="36.072" y="1.67" class="f">|</text><text x="38.076" y="1.67" class="f">RELEASE_DATE</text><text x="51.102" y="1.67" class="f">|</text></symbol><symbol id="4"><text y="1.67" class="f">|</text><text x="2.004" y="1.67" class="f">2.3</text><text x="10.02" y="1.67" class="f">|</text><text x="12.024" y="1.67" class="f">Gingerbread</text><text x="24.048" y="1.67" class="f">|</text><text x="26.052" y="1.67" class="f">9</text><text x="36.072" y="1.67" class="f">|</text><text x="38.076" y="1.67" class="f">2010-12-06</text><text x="51.102" y="1.67" class="f">|</text></symbol><symbol id="5"><text y="1.67" class="f">|</text><text x="2.004" y="1.67" class="f">2.3.1</text><text x="10.02" y="1.67" class="f">|</text><text x="12.024" y="1.67" class="f">Gingerbread</text><text x="24.048" y="1.67" class="f">|</text><text x="26.052" y="1.67" class="f">9</text><text x="36.072" y="1.67" class="f">|</text><text x="38.076" y="1.67" class="f">2010-12</text><text x="51.102" y="1.67" class="f">|</text></symbol><symbol id="6"><text y="1.67" class="f">|</text><text x="2.004" y="1.67" class="f">2.3.2</text><text x="10.02" y="1.67" class="f">|</text><text x="12.024" y="1.67" class="f">Gingerbread</text><text x="24.048" y="1.67" class="f">|</text><text x="26.052" y="1.67" class="f">9</text><text x="36.072" y="1.67" class="f">|</text><text x="38.076" y="1.67" class="f">2011-01</text><text x="51.102" y="1.67" class="f">|</text></symbol><symbol id="7"><text y="1.67" class="f">|</text><text x="2.004" y="1.67" class="f">2.3.3</text><text x="10.02" y="1.67" class="f">|</text><text x="12.024" y="1.67" class="f">Gingerbread</text><text x="24.048" y="1.67" class="f">|</text><text x="26.052" y="1.67" class="f">10</text><text x="36.072" y="1.67" class="f">|</text><text x="38.076" y="1.67" class="f">2011-02-09</text><text x="51.102" y="1.67" class="f">|</text></symbol><symbol id="8"><text y="1.67" class="f">|</text><text x="2.004" y="1.67" class="f">2.3.4</text><text x="10.02" y="1.67" class="f">|</text><text x="12.024" y="1.67" class="f">Gingerbread</text><text x="24.048" y="1.67" class="f">|</text><text x="26.052" y="1.67" class="f">10</text><text x="36.072" y="1.67" class="f">|</text><text x="38.076" y="1.67" class="f">2011-04-28</text><text x="51.102" y="1.67" class="f">|</text></symbol><symbol id="9"><text y="1.67" class="f">|</text><text x="2.004" y="1.67" class="f">2.3.5</text><text x="10.02" y="1.67" class="f">|</text><text x="12.024" y="1.67" class="f">Gingerbread</text><text x="24.048" y="1.67" class="f">|</text><text x="26.052" y="1.67" class="f">10</text><text x="36.072" y="1.67" class="f">|</text><text x="38.076" y="1.67" class="f">2011-07-25</text><text x="51.102" y="1.67" class="f">|</text></symbol><symbol id="10"><text y="1.67" class="f">|</text><text x="2.004" y="1.67" class="f">2.3.6</text><text x="10.02" y="1.67" class="f">|</text><text x="12.024" y="1.67" class="f">Gingerbread</text><text x="24.048" y="1.67" class="f">|</text><text x="26.052" y="1.67" class="f">10</text><text x="36.072" y="1.67" class="f">|</text><text x="38.076" y="1.67" class="f">2011-09-02</text><text x="51.102" y="1.67" class="f">|</text></symbol><symbol id="11"><text y="1.67" class="f">|</text><text x="2.004" y="1.67" class="f">2.3.7</text><text x="10.02" y="1.67" class="f">|</text><text x="12.024" y="1.67" class="f">Gingerbread</text><text x="24.048" y="1.67" class="f">|</text><text x="26.052" y="1.67" class="f">10</text><text x="36.072" y="1.67" class="f">|</text><text x="38.076" y="1.67" class="f">2011-09-21</text><text x="51.102" y="1.67" class="f">|</text></symbol><symbol id="12"><text y="1.67" class="f">%</text></symbol><symbol id="13"><text y="1.67" class="f">%</text><text x="2.004" y="1.67" class="h">c</text><text x="3.006" y="1.67" class="i">lear</text></symbol><symbol id="14"><text y="1.67" class="f">%</text><text x="2.004" y="1.67" class="h">cl</text><text x="4.008" y="1.67" class="i">ear</text></symbol><symbol id="15"><text y="1.67" class="f">%</text><text x="2.004" y="1.67" class="h">cle</text><text x="5.01" y="1.67" class="i">ar</text></symbol><symbol id="16"><text y="1.67" class="f">%</text><text x="2.004" y="1.67" class="h">clea</text><text x="6.012" y="1.67" class="i">r</text></symbol><symbol id="17"><text y="1.67" class="f">%</text><text x="2.004" y="1.67" class="g">clear</text></symbol><symbol id="18"><text y="1.67" class="f">%</text><text x="2.004" y="1.67" class="g">droid</text><text x="8.016" y="1.67" class="i">version</text><text x="16.032" y="1.67" class="i">2.3</text></symbol><symbol id="19"><text y="1.67" class="f">%</text><text x="2.004" y="1.67" class="g">droid</text><text x="8.016" y="1.67" class="f">code</text><text x="13.026" y="1.67" class="i">icecream</text></symbol><symbol id="20"><text y="1.67" class="f">%</text><text x="2.004" y="1.67" class="g">droid</text><text x="8.016" y="1.67" class="f">code</text><text x="13.026" y="1.67" class="f">icecream</text></symbol><symbol id="21"><text y="1.67" class="f">+---------+--------------------+-----------+--------------+</text></symbol><symbol id="22"><text y="1.67" class="f">|</text><text x="2.004" y="1.67" class="f">VERSION</text><text x="10.02" y="1.67" class="f">|</text><text x="12.024" y="1.67" class="f">CODE_NAME</text><text x="31.062" y="1.67" class="f">|</text><text x="33.066" y="1.67" class="f">API_LEVEL</text><text x="43.086" y="1.67" class="f">|</text><text x="45.09" y="1.67" class="f">RELEASE_DATE</text><text x="58.116" y="1.67" class="f">|</text></symbol><symbol id="23"><text y="1.67" class="f">|</text><text x="2.004" y="1.67" class="f">4.0</text><text x="10.02" y="1.67" class="f">|</text><text x="12.024" y="1.67" class="f">Ice</text><text x="16.032" y="1.67" class="f">Cream</text><text x="22.044" y="1.67" class="f">Sandwich</text><text x="31.062" y="1.67" class="f">|</text><text x="33.066" y="1.67" class="f">14</text><text x="43.086" y="1.67" class="f">|</text><text x="45.09" y="1.67" class="f">2011-10-18</text><text x="58.116" y="1.67" class="f">|</text></symbol><symbol id="24"><text y="1.67" class="f">|</text><text x="2.004" y="1.67" class="f">4.0.1</text><text x="10.02" y="1.67" class="f">|</text><text x="12.024" y="1.67" class="f">Ice</text><text x="16.032" y="1.67" class="f">Cream</text><text x="22.044" y="1.67" class="f">Sandwich</text><text x="31.062" y="1.67" class="f">|</text><text x="33.066" y="1.67" class="f">14</text><text x="43.086" y="1.67" class="f">|</text><text x="45.09" y="1.67" class="f">2011-10-21</text><text x="58.116" y="1.67" class="f">|</text></symbol><symbol id="25"><text y="1.67" class="f">|</text><text x="2.004" y="1.67" class="f">4.0.2</text><text x="10.02" y="1.67" class="f">|</text><text x="12.024" y="1.67" class="f">Ice</text><text x="16.032" y="1.67" class="f">Cream</text><text x="22.044" y="1.67" class="f">Sandwich</text><text x="31.062" y="1.67" class="f">|</text><text x="33.066" y="1.67" class="f">14</text><text x="43.086" y="1.67" class="f">|</text><text x="45.09" y="1.67" class="f">2011-11-28</text><text x="58.116" y="1.67" class="f">|</text></symbol><symbol id="26"><text y="1.67" class="f">|</text><text x="2.004" y="1.67" class="f">4.0.3</text><text x="10.02" y="1.67" class="f">|</text><text x="12.024" y="1.67" class="f">Ice</text><text x="16.032" y="1.67" class="f">Cream</text><text x="22.044" y="1.67" class="f">Sandwich</text><text x="31.062" y="1.67" class="f">|</text><text x="33.066" y="1.67" class="f">15</text><text x="43.086" y="1.67" class="f">|</text><text x="45.09" y="1.67" class="f">2011-12-16</text><text x="58.116" y="1.67" class="f">|</text></symbol><symbol id="27"><text y="1.67" class="f">|</text><text x="2.004" y="1.67" class="f">4.0.4</text><text x="10.02" y="1.67" class="f">|</text><text x="12.024" y="1.67" class="f">Ice</text><text x="16.032" y="1.67" class="f">Cream</text><text x="22.044" y="1.67" class="f">Sandwich</text><text x="31.062" y="1.67" class="f">|</text><text x="33.066" y="1.67" class="f">15</text><text x="43.086" y="1.67" class="f">|</text><text x="45.09" y="1.67" class="f">2012-03-29</text><text x="58.116" y="1.67" class="f">|</text></symbol><symbol id="28"><text y="1.67" class="f">%</text><text x="2.004" y="1.67" class="g">droid</text><text x="8.016" y="1.67" class="i">code</text><text x="13.026" y="1.67" class="i">icecream</text></symbol><symbol id="29"><text y="1.67" class="f">%</text><text x="2.004" y="1.67" class="g">droid</text><text x="8.016" y="1.67" class="f">api</text><text x="12.024" y="1.67" class="i">21</text></symbol><symbol id="30"><text y="1.67" class="f">%</text><text x="2.004" y="1.67" class="g">droid</text><text x="8.016" y="1.67" class="f">api</text><text x="12.024" y="1.67" class="f">23</text></symbol><symbol id="31"><text y="1.67" class="f">|</text><text x="2.004" y="1.67" class="f">6.0</text><text x="10.02" y="1.67" class="f">|</text><text x="12.024" y="1.67" class="f">Marshmallow</text><text x="24.048" y="1.67" class="f">|</text><text x="26.052" y="1.67" class="f">23</text><text x="36.072" y="1.67" class="f">|</text><text x="38.076" y="1.67" class="f">2015-10-05</text><text x="51.102" y="1.67" class="f">|</text></symbol><symbol id="32"><text y="1.67" class="f">|</text><text x="2.004" y="1.67" class="f">6.0.1</text><text x="10.02" y="1.67" class="f">|</text><text x="12.024" y="1.67" class="f">Marshmallow</text><text x="24.048" y="1.67" class="f">|</text><text x="26.052" y="1.67" class="f">23</text><text x="36.072" y="1.67" class="f">|</text><text x="38.076" y="1.67" class="f">2015-12-07</text><text x="51.102" y="1.67" class="f">|</text></symbol><symbol id="33"><text y="1.67" class="f">%</text><text x="2.004" y="1.67" class="g">exit</text></symbol><symbol id="a"><path fill="transparent" d="M0 0h101v28H0z"/></symbol><symbol id="b"><path fill="#6f7683" d="M0 0h1.102v2.171H0z"/></symbol></defs><path class="a" d="M0 0h101v60.788H0z"/><g style="animation-duration:15.419045999999998s;animation-iteration-count:infinite;animation-name:l;animation-timing-function:steps(1,end)"><svg width="9797"><svg><use xlink:href="#a"/><use xlink:href="#b" x="16.996"/><text y="1.67" class="f">%</text><text x="2.004" y="1.67" class="g">droid</text><text x="8.016" y="1.67" class="f">version</text><text x="16.032" y="1.67" class="f">2</text><text x="17.034" y="1.67" class="i">.3</text></svg><svg x="101"><use xlink:href="#a"/><use xlink:href="#b" x="17.996"/><text y="1.67" class="f">%</text><text x="2.004" y="1.67" class="g">droid</text><text x="8.016" y="1.67" class="f">version</text><text x="16.032" y="1.67" class="f">2.</text><text x="18.036" y="1.67" class="i">3</text></svg><svg x="202"><use xlink:href="#a"/><use xlink:href="#b" x="18.996"/><use xlink:href="#1"/></svg><svg x="303"><use xlink:href="#a"/><use xlink:href="#b" x="18.996"/><use xlink:href="#1"/></svg><svg x="404"><use xlink:href="#a"/><use xlink:href="#b" x="18.996"/><use xlink:href="#1"/></svg><svg x="505"><use xlink:href="#a"/><use xlink:href="#b" x="-.004" y="2.146"/><use xlink:href="#1"/></svg><svg x="606"><use xlink:href="#a"/><use xlink:href="#b" x="-.004" y="6.488"/><use xlink:href="#1"/></svg><svg x="707"><use xlink:href="#a"/><use xlink:href="#b" x="-.004" y="17.343"/><use xlink:href="#1"/><use xlink:href="#2" y="6.513"/><use xlink:href="#3" y="8.684"/><use xlink:href="#2" y="10.855"/><use xlink:href="#4" y="13.026"/><use xlink:href="#5" y="15.197"/></svg><svg x="808"><use xlink:href="#a"/><use xlink:href="#b" x="-.004" y="34.711"/><use xlink:href="#1"/><use xlink:href="#2" y="6.513"/><use xlink:href="#3" y="8.684"/><use xlink:href="#2" y="10.855"/><use xlink:href="#4" y="13.026"/><use xlink:href="#5" y="15.197"/><use xlink:href="#6" y="17.368"/><use xlink:href="#7" y="19.539"/><use xlink:href="#8" y="21.71"/><use xlink:href="#9" y="23.881"/><use xlink:href="#10" y="26.052"/><use xlink:href="#11" y="28.223"/><use xlink:href="#2" y="30.394"/></svg><svg x="909"><use xlink:href="#a"/><use xlink:href="#b" x="-.004" y="34.711"/><use xlink:href="#1"/><use xlink:href="#2" y="6.513"/><use xlink:href="#3" y="8.684"/><use xlink:href="#2" y="10.855"/><use xlink:href="#4" y="13.026"/><use xlink:href="#5" y="15.197"/><use xlink:href="#6" y="17.368"/><use xlink:href="#7" y="19.539"/><use xlink:href="#8" y="21.71"/><use xlink:href="#9" y="23.881"/><use xlink:href="#10" y="26.052"/><use xlink:href="#11" y="28.223"/><use xlink:href="#2" y="30.394"/></svg><svg x="1010"><use xlink:href="#a"/><use xlink:href="#b" x="1.996" y="34.711"/><use xlink:href="#1"/><use xlink:href="#2" y="6.513"/><use xlink:href="#3" y="8.684"/><use xlink:href="#2" y="10.855"/><use xlink:href="#4" y="13.026"/><use xlink:href="#5" y="15.197"/><use xlink:href="#6" y="17.368"/><use xlink:href="#7" y="19.539"/><use xlink:href="#8" y="21.71"/><use xlink:href="#9" y="23.881"/><use xlink:href="#10" y="26.052"/><use xlink:href="#11" y="28.223"/><use xlink:href="#2" y="30.394"/><use xlink:href="#12" y="34.736"/></svg><svg x="1111"><use xlink:href="#a"/><use xlink:href="#b" x="1.996" y="34.711"/><use xlink:href="#1"/><use xlink:href="#2" y="6.513"/><use xlink:href="#3" y="8.684"/><use xlink:href="#2" y="10.855"/><use xlink:href="#4" y="13.026"/><use xlink:href="#5" y="15.197"/><use xlink:href="#6" y="17.368"/><use xlink:href="#7" y="19.539"/><use xlink:href="#8" y="21.71"/><use xlink:href="#9" y="23.881"/><use xlink:href="#10" y="26.052"/><use xlink:href="#11" y="28.223"/><use xlink:href="#2" y="30.394"/><use xlink:href="#12" y="34.736"/></svg><svg x="1212"><use xlink:href="#a"/><use xlink:href="#b" x="1.996" y="34.711"/><use xlink:href="#1"/><use xlink:href="#2" y="6.513"/><use xlink:href="#3" y="8.684"/><use xlink:href="#2" y="10.855"/><use xlink:href="#4" y="13.026"/><use xlink:href="#5" y="15.197"/><use xlink:href="#6" y="17.368"/><use xlink:href="#7" y="19.539"/><use xlink:href="#8" y="21.71"/><use xlink:href="#9" y="23.881"/><use xlink:href="#10" y="26.052"/><use xlink:href="#11" y="28.223"/><use xlink:href="#2" y="30.394"/><use xlink:href="#12" y="34.736"/></svg><svg x="1313"><use xlink:href="#a"/><use xlink:href="#b" x="2.996" y="34.711"/><use xlink:href="#1"/><use xlink:href="#2" y="6.513"/><use xlink:href="#3" y="8.684"/><use xlink:href="#2" y="10.855"/><use xlink:href="#4" y="13.026"/><use xlink:href="#5" y="15.197"/><use xlink:href="#6" y="17.368"/><use xlink:href="#7" y="19.539"/><use xlink:href="#8" y="21.71"/><use xlink:href="#9" y="23.881"/><use xlink:href="#10" y="26.052"/><use xlink:href="#11" y="28.223"/><use xlink:href="#2" y="30.394"/><use xlink:href="#13" y="34.736"/></svg><svg x="1414"><use xlink:href="#a"/><use xlink:href="#b" x="3.996" y="34.711"/><use xlink:href="#1"/><use xlink:href="#2" y="6.513"/><use xlink:href="#3" y="8.684"/><use xlink:href="#2" y="10.855"/><use xlink:href="#4" y="13.026"/><use xlink:href="#5" y="15.197"/><use xlink:href="#6" y="17.368"/><use xlink:href="#7" y="19.539"/><use xlink:href="#8" y="21.71"/><use xlink:href="#9" y="23.881"/><use xlink:href="#10" y="26.052"/><use xlink:href="#11" y="28.223"/><use xlink:href="#2" y="30.394"/><use xlink:href="#14" y="34.736"/></svg><svg x="1515"><use xlink:href="#a"/><use xlink:href="#b" x="4.996" y="34.711"/><use xlink:href="#1"/><use xlink:href="#2" y="6.513"/><use xlink:href="#3" y="8.684"/><use xlink:href="#2" y="10.855"/><use xlink:href="#4" y="13.026"/><use xlink:href="#5" y="15.197"/><use xlink:href="#6" y="17.368"/><use xlink:href="#7" y="19.539"/><use xlink:href="#8" y="21.71"/><use xlink:href="#9" y="23.881"/><use xlink:href="#10" y="26.052"/><use xlink:href="#11" y="28.223"/><use xlink:href="#2" y="30.394"/><use xlink:href="#15" y="34.736"/></svg><svg x="1616"><use xlink:href="#a"/><use xlink:href="#b" x="5.996" y="34.711"/><use xlink:href="#1"/><use xlink:href="#2" y="6.513"/><use xlink:href="#3" y="8.684"/><use xlink:href="#2" y="10.855"/><use xlink:href="#4" y="13.026"/><use xlink:href="#5" y="15.197"/><use xlink:href="#6" y="17.368"/><use xlink:href="#7" y="19.539"/><use xlink:href="#8" y="21.71"/><use xlink:href="#9" y="23.881"/><use xlink:href="#10" y="26.052"/><use xlink:href="#11" y="28.223"/><use xlink:href="#2" y="30.394"/><use xlink:href="#16" y="34.736"/></svg><svg x="1717"><use xlink:href="#a"/><use xlink:href="#b" x="6.996" y="34.711"/><use xlink:href="#1"/><use xlink:href="#2" y="6.513"/><use xlink:href="#3" y="8.684"/><use xlink:href="#2" y="10.855"/><use xlink:href="#4" y="13.026"/><use xlink:href="#5" y="15.197"/><use xlink:href="#6" y="17.368"/><use xlink:href="#7" y="19.539"/><use xlink:href="#8" y="21.71"/><use xlink:href="#9" y="23.881"/><use xlink:href="#10" y="26.052"/><use xlink:href="#11" y="28.223"/><use xlink:href="#2" y="30.394"/><use xlink:href="#17" y="34.736"/></svg><svg x="1818"><use xlink:href="#a"/><use xlink:href="#b" x="6.996" y="34.711"/><use xlink:href="#1"/><use xlink:href="#2" y="6.513"/><use xlink:href="#3" y="8.684"/><use xlink:href="#2" y="10.855"/><use xlink:href="#4" y="13.026"/><use xlink:href="#5" y="15.197"/><use xlink:href="#6" y="17.368"/><use xlink:href="#7" y="19.539"/><use xlink:href="#8" y="21.71"/><use xlink:href="#9" y="23.881"/><use xlink:href="#10" y="26.052"/><use xlink:href="#11" y="28.223"/><use xlink:href="#2" y="30.394"/><use xlink:href="#17" y="34.736"/></svg><svg x="1919"><use xlink:href="#a"/><use xlink:href="#b" x="6.996" y="34.711"/><use xlink:href="#1"/><use xlink:href="#2" y="6.513"/><use xlink:href="#3" y="8.684"/><use xlink:href="#2" y="10.855"/><use xlink:href="#4" y="13.026"/><use xlink:href="#5" y="15.197"/><use xlink:href="#6" y="17.368"/><use xlink:href="#7" y="19.539"/><use xlink:href="#8" y="21.71"/><use xlink:href="#9" y="23.881"/><use xlink:href="#10" y="26.052"/><use xlink:href="#11" y="28.223"/><use xlink:href="#2" y="30.394"/><use xlink:href="#17" y="34.736"/></svg><svg x="2020"><use xlink:href="#a"/><use xlink:href="#b" x="-.004" y="36.882"/><use xlink:href="#1"/><use xlink:href="#2" y="6.513"/><use xlink:href="#3" y="8.684"/><use xlink:href="#2" y="10.855"/><use xlink:href="#4" y="13.026"/><use xlink:href="#5" y="15.197"/><use xlink:href="#6" y="17.368"/><use xlink:href="#7" y="19.539"/><use xlink:href="#8" y="21.71"/><use xlink:href="#9" y="23.881"/><use xlink:href="#10" y="26.052"/><use xlink:href="#11" y="28.223"/><use xlink:href="#2" y="30.394"/><use xlink:href="#17" y="34.736"/></svg><svg x="2121"><use xlink:href="#a"/><use xlink:href="#b" x="-.004"/></svg><svg x="2222"><use xlink:href="#a"/><use xlink:href="#b" x="-.004"/></svg><svg x="2323"><use xlink:href="#a"/><use xlink:href="#b" x="1.996"/><use xlink:href="#12"/></svg><svg x="2424"><use xlink:href="#a"/><use xlink:href="#b" x="1.996"/><use xlink:href="#12"/></svg><svg x="2525"><use xlink:href="#a"/><use xlink:href="#b" x="1.996"/><use xlink:href="#12"/></svg><svg x="2626"><use xlink:href="#a"/><use xlink:href="#b" x="2.996"/><text y="1.67" class="f">%</text><text x="2.004" y="1.67" class="g">d</text><text x="3.006" y="1.67" class="i">roid</text><text x="8.016" y="1.67" class="i">version</text><text x="16.032" y="1.67" class="i">2.3</text></svg><svg x="2727"><use xlink:href="#a"/><use xlink:href="#b" x="3.996"/><text y="1.67" class="f">%</text><text x="2.004" y="1.67" class="h">dr</text><text x="4.008" y="1.67" class="i">oid</text><text x="8.016" y="1.67" class="i">version</text><text x="16.032" y="1.67" class="i">2.3</text></svg><svg x="2828"><use xlink:href="#a"/><use xlink:href="#b" x="4.996"/><text y="1.67" class="f">%</text><text x="2.004" y="1.67" class="h">dro</text><text x="5.01" y="1.67" class="i">id</text><text x="8.016" y="1.67" class="i">version</text><text x="16.032" y="1.67" class="i">2.3</text></svg><svg x="2929"><use xlink:href="#a"/><use xlink:href="#b" x="5.996"/><text y="1.67" class="f">%</text><text x="2.004" y="1.67" class="h">droi</text><text x="6.012" y="1.67" class="i">d</text><text x="8.016" y="1.67" class="i">version</text><text x="16.032" y="1.67" class="i">2.3</text></svg><svg x="3030"><use xlink:href="#a"/><use xlink:href="#b" x="6.996"/><use xlink:href="#18"/></svg><svg x="3131"><use xlink:href="#a"/><use xlink:href="#b" x="7.996"/><use xlink:href="#18"/></svg><svg x="3232"><use xlink:href="#a"/><use xlink:href="#b" x="8.996"/><text y="1.67" class="f">%</text><text x="2.004" y="1.67" class="g">droid</text><text x="8.016" y="1.67" class="f">c</text><text x="9.018" y="1.67" class="i">ode</text><text x="13.026" y="1.67" class="i">icecream</text></svg><svg x="3333"><use xlink:href="#a"/><use xlink:href="#b" x="9.996"/><text y="1.67" class="f">%</text><text x="2.004" y="1.67" class="g">droid</text><text x="8.016" y="1.67" class="f">co</text><text x="10.02" y="1.67" class="i">de</text><text x="13.026" y="1.67" class="i">icecream</text></svg><svg x="3434"><use xlink:href="#a"/><use xlink:href="#b" x="10.996"/><text y="1.67" class="f">%</text><text x="2.004" y="1.67" class="g">droid</text><text x="8.016" y="1.67" class="f">cod</text><text x="11.022" y="1.67" class="i">e</text><text x="13.026" y="1.67" class="i">icecream</text></svg><svg x="3535"><use xlink:href="#a"/><use xlink:href="#b" x="11.996"/><use xlink:href="#19"/></svg><svg x="3636"><use xlink:href="#a"/><use xlink:href="#b" x="12.996"/><use xlink:href="#19"/></svg><svg x="3737"><use xlink:href="#a"/><use xlink:href="#b" x="13.996"/><text y="1.67" class="f">%</text><text x="2.004" y="1.67" class="g">droid</text><text x="8.016" y="1.67" class="f">code</text><text x="13.026" y="1.67" class="n">i</text><text x="14.028" y="1.67" class="i">cecream</text></svg><svg x="3838"><use xlink:href="#a"/><use xlink:href="#b" x="14.996"/><text y="1.67" class="f">%</text><text x="2.004" y="1.67" class="g">droid</text><text x="8.016" y="1.67" class="f">code</text><text x="13.026" y="1.67" class="f">ic</text><text x="15.03" y="1.67" class="i">ecream</text></svg><svg x="3939"><use xlink:href="#a"/><use xlink:href="#b" x="15.996"/><text y="1.67" class="f">%</text><text x="2.004" y="1.67" class="g">droid</text><text x="8.016" y="1.67" class="f">code</text><text x="13.026" y="1.67" class="f">ice</text><text x="16.032" y="1.67" class="i">cream</text></svg><svg x="4040"><use xlink:href="#a"/><use xlink:href="#b" x="16.996"/><text y="1.67" class="f">%</text><text x="2.004" y="1.67" class="g">droid</text><text x="8.016" y="1.67" class="f">code</text><text x="13.026" y="1.67" class="f">icec</text><text x="17.034" y="1.67" class="i">ream</text></svg><svg x="4141"><use xlink:href="#a"/><use xlink:href="#b" x="17.996"/><text y="1.67" class="f">%</text><text x="2.004" y="1.67" class="g">droid</text><text x="8.016" y="1.67" class="f">code</text><text x="13.026" y="1.67" class="f">icecr</text><text x="18.036" y="1.67" class="i">eam</text></svg><svg x="4242"><use xlink:href="#a"/><use xlink:href="#b" x="18.996"/><text y="1.67" class="f">%</text><text x="2.004" y="1.67" class="g">droid</text><text x="8.016" y="1.67" class="f">code</text><text x="13.026" y="1.67" class="f">icecre</text><text x="19.038" y="1.67" class="i">am</text></svg><svg x="4343"><use xlink:href="#a"/><use xlink:href="#b" x="19.996"/><text y="1.67" class="f">%</text><text x="2.004" y="1.67" class="g">droid</text><text x="8.016" y="1.67" class="f">code</text><text x="13.026" y="1.67" class="f">icecrea</text><text x="20.04" y="1.67" class="i">m</text></svg><svg x="4444"><use xlink:href="#a"/><use xlink:href="#b" x="20.996"/><use xlink:href="#20"/></svg><svg x="4545"><use xlink:href="#a"/><use xlink:href="#b" x="20.996"/><use xlink:href="#20"/></svg><svg x="4646"><use xlink:href="#a"/><use xlink:href="#b" x="20.996"/><use xlink:href="#20"/></svg><svg x="4747"><use xlink:href="#a"/><use xlink:href="#b" x="-.004" y="2.146"/><use xlink:href="#20"/></svg><svg x="4848"><use xlink:href="#a"/><use xlink:href="#b" x="-.004" y="6.488"/><use xlink:href="#20"/></svg><svg x="4949"><use xlink:href="#a"/><use xlink:href="#b" x="-.004" y="26.027"/><use xlink:href="#20"/><use xlink:href="#21" y="6.513"/><use xlink:href="#22" y="8.684"/><use xlink:href="#21" y="10.855"/><use xlink:href="#23" y="13.026"/><use xlink:href="#24" y="15.197"/><use xlink:href="#25" y="17.368"/><use xlink:href="#26" y="19.539"/><use xlink:href="#27" y="21.71"/><use xlink:href="#21" y="23.881"/></svg><svg x="5050"><use xlink:href="#a"/><use xlink:href="#b" x="-.004" y="28.198"/><use xlink:href="#20"/><use xlink:href="#21" y="6.513"/><use xlink:href="#22" y="8.684"/><use xlink:href="#21" y="10.855"/><use xlink:href="#23" y="13.026"/><use xlink:href="#24" y="15.197"/><use xlink:href="#25" y="17.368"/><use xlink:href="#26" y="19.539"/><use xlink:href="#27" y="21.71"/><use xlink:href="#21" y="23.881"/></svg><svg x="5151"><use xlink:href="#a"/><use xlink:href="#b" x="-.004" y="28.198"/><use xlink:href="#20"/><use xlink:href="#21" y="6.513"/><use xlink:href="#22" y="8.684"/><use xlink:href="#21" y="10.855"/><use xlink:href="#23" y="13.026"/><use xlink:href="#24" y="15.197"/><use xlink:href="#25" y="17.368"/><use xlink:href="#26" y="19.539"/><use xlink:href="#27" y="21.71"/><use xlink:href="#21" y="23.881"/></svg><svg x="5252"><use xlink:href="#a"/><use xlink:href="#b" x="1.996" y="28.198"/><use xlink:href="#20"/><use xlink:href="#21" y="6.513"/><use xlink:href="#22" y="8.684"/><use xlink:href="#21" y="10.855"/><use xlink:href="#23" y="13.026"/><use xlink:href="#24" y="15.197"/><use xlink:href="#25" y="17.368"/><use xlink:href="#26" y="19.539"/><use xlink:href="#27" y="21.71"/><use xlink:href="#21" y="23.881"/><use xlink:href="#12" y="28.223"/></svg><svg x="5353"><use xlink:href="#a"/><use xlink:href="#b" x="1.996" y="28.198"/><use xlink:href="#20"/><use xlink:href="#21" y="6.513"/><use xlink:href="#22" y="8.684"/><use xlink:href="#21" y="10.855"/><use xlink:href="#23" y="13.026"/><use xlink:href="#24" y="15.197"/><use xlink:href="#25" y="17.368"/><use xlink:href="#26" y="19.539"/><use xlink:href="#27" y="21.71"/><use xlink:href="#21" y="23.881"/><use xlink:href="#12" y="28.223"/></svg><svg x="5454"><use xlink:href="#a"/><use xlink:href="#b" x="1.996" y="28.198"/><use xlink:href="#20"/><use xlink:href="#21" y="6.513"/><use xlink:href="#22" y="8.684"/><use xlink:href="#21" y="10.855"/><use xlink:href="#23" y="13.026"/><use xlink:href="#24" y="15.197"/><use xlink:href="#25" y="17.368"/><use xlink:href="#26" y="19.539"/><use xlink:href="#27" y="21.71"/><use xlink:href="#21" y="23.881"/><use xlink:href="#12" y="28.223"/></svg><svg x="5555"><use xlink:href="#a"/><use xlink:href="#b" x="2.996" y="28.198"/><use xlink:href="#20"/><use xlink:href="#21" y="6.513"/><use xlink:href="#22" y="8.684"/><use xlink:href="#21" y="10.855"/><use xlink:href="#23" y="13.026"/><use xlink:href="#24" y="15.197"/><use xlink:href="#25" y="17.368"/><use xlink:href="#26" y="19.539"/><use xlink:href="#27" y="21.71"/><use xlink:href="#21" y="23.881"/><use xlink:href="#13" y="28.223"/></svg><svg x="5656"><use xlink:href="#a"/><use xlink:href="#b" x="3.996" y="28.198"/><use xlink:href="#20"/><use xlink:href="#21" y="6.513"/><use xlink:href="#22" y="8.684"/><use xlink:href="#21" y="10.855"/><use xlink:href="#23" y="13.026"/><use xlink:href="#24" y="15.197"/><use xlink:href="#25" y="17.368"/><use xlink:href="#26" y="19.539"/><use xlink:href="#27" y="21.71"/><use xlink:href="#21" y="23.881"/><use xlink:href="#14" y="28.223"/></svg><svg x="5757"><use xlink:href="#a"/><use xlink:href="#b" x="4.996" y="28.198"/><use xlink:href="#20"/><use xlink:href="#21" y="6.513"/><use xlink:href="#22" y="8.684"/><use xlink:href="#21" y="10.855"/><use xlink:href="#23" y="13.026"/><use xlink:href="#24" y="15.197"/><use xlink:href="#25" y="17.368"/><use xlink:href="#26" y="19.539"/><use xlink:href="#27" y="21.71"/><use xlink:href="#21" y="23.881"/><use xlink:href="#15" y="28.223"/></svg><svg x="5858"><use xlink:href="#a"/><use xlink:href="#b" x="5.996" y="28.198"/><use xlink:href="#20"/><use xlink:href="#21" y="6.513"/><use xlink:href="#22" y="8.684"/><use xlink:href="#21" y="10.855"/><use xlink:href="#23" y="13.026"/><use xlink:href="#24" y="15.197"/><use xlink:href="#25" y="17.368"/><use xlink:href="#26" y="19.539"/><use xlink:href="#27" y="21.71"/><use xlink:href="#21" y="23.881"/><use xlink:href="#16" y="28.223"/></svg><svg x="5959"><use xlink:href="#a"/><use xlink:href="#b" x="6.996" y="28.198"/><use xlink:href="#20"/><use xlink:href="#21" y="6.513"/><use xlink:href="#22" y="8.684"/><use xlink:href="#21" y="10.855"/><use xlink:href="#23" y="13.026"/><use xlink:href="#24" y="15.197"/><use xlink:href="#25" y="17.368"/><use xlink:href="#26" y="19.539"/><use xlink:href="#27" y="21.71"/><use xlink:href="#21" y="23.881"/><use xlink:href="#17" y="28.223"/></svg><svg x="6060"><use xlink:href="#a"/><use xlink:href="#b" x="6.996" y="28.198"/><use xlink:href="#20"/><use xlink:href="#21" y="6.513"/><use xlink:href="#22" y="8.684"/><use xlink:href="#21" y="10.855"/><use xlink:href="#23" y="13.026"/><use xlink:href="#24" y="15.197"/><use xlink:href="#25" y="17.368"/><use xlink:href="#26" y="19.539"/><use xlink:href="#27" y="21.71"/><use xlink:href="#21" y="23.881"/><use xlink:href="#17" y="28.223"/></svg><svg x="6161"><use xlink:href="#a"/><use xlink:href="#b" x="6.996" y="28.198"/><use xlink:href="#20"/><use xlink:href="#21" y="6.513"/><use xlink:href="#22" y="8.684"/><use xlink:href="#21" y="10.855"/><use xlink:href="#23" y="13.026"/><use xlink:href="#24" y="15.197"/><use xlink:href="#25" y="17.368"/><use xlink:href="#26" y="19.539"/><use xlink:href="#27" y="21.71"/><use xlink:href="#21" y="23.881"/><use xlink:href="#17" y="28.223"/></svg><svg x="6262"><use xlink:href="#a"/><use xlink:href="#b" x="-.004" y="30.369"/><use xlink:href="#20"/><use xlink:href="#21" y="6.513"/><use xlink:href="#22" y="8.684"/><use xlink:href="#21" y="10.855"/><use xlink:href="#23" y="13.026"/><use xlink:href="#24" y="15.197"/><use xlink:href="#25" y="17.368"/><use xlink:href="#26" y="19.539"/><use xlink:href="#27" y="21.71"/><use xlink:href="#21" y="23.881"/><use xlink:href="#17" y="28.223"/></svg><svg x="6363"><use xlink:href="#a"/><use xlink:href="#b" x="-.004"/></svg><svg x="6464"><use xlink:href="#a"/><use xlink:href="#b" x="-.004"/></svg><svg x="6565"><use xlink:href="#a"/><use xlink:href="#b" x="1.996"/><use xlink:href="#12"/></svg><svg x="6666"><use xlink:href="#a"/><use xlink:href="#b" x="1.996"/><use xlink:href="#12"/></svg><svg x="6767"><use xlink:href="#a"/><use xlink:href="#b" x="1.996"/><use xlink:href="#12"/></svg><svg x="6868"><use xlink:href="#a"/><use xlink:href="#b" x="2.996"/><text y="1.67" class="f">%</text><text x="2.004" y="1.67" class="g">d</text><text x="3.006" y="1.67" class="i">roid</text><text x="8.016" y="1.67" class="i">code</text><text x="13.026" y="1.67" class="i">icecream</text></svg><svg x="6969"><use xlink:href="#a"/><use xlink:href="#b" x="3.996"/><text y="1.67" class="f">%</text><text x="2.004" y="1.67" class="h">dr</text><text x="4.008" y="1.67" class="i">oid</text><text x="8.016" y="1.67" class="i">code</text><text x="13.026" y="1.67" class="i">icecream</text></svg><svg x="7070"><use xlink:href="#a"/><use xlink:href="#b" x="4.996"/><text y="1.67" class="f">%</text><text x="2.004" y="1.67" class="h">dro</text><text x="5.01" y="1.67" class="i">id</text><text x="8.016" y="1.67" class="i">code</text><text x="13.026" y="1.67" class="i">icecream</text></svg><svg x="7171"><use xlink:href="#a"/><use xlink:href="#b" x="5.996"/><text y="1.67" class="f">%</text><text x="2.004" y="1.67" class="h">droi</text><text x="6.012" y="1.67" class="i">d</text><text x="8.016" y="1.67" class="i">code</text><text x="13.026" y="1.67" class="i">icecream</text></svg><svg x="7272"><use xlink:href="#a"/><use xlink:href="#b" x="6.996"/><use xlink:href="#28"/></svg><svg x="7373"><use xlink:href="#a"/><use xlink:href="#b" x="7.996"/><use xlink:href="#28"/></svg><svg x="7474"><use xlink:href="#a"/><use xlink:href="#b" x="8.996"/><text y="1.67" class="f">%</text><text x="2.004" y="1.67" class="g">droid</text><text x="8.016" y="1.67" class="n">a</text><text x="9.018" y="1.67" class="i">pi</text><text x="12.024" y="1.67" class="i">21</text></svg><svg x="7575"><use xlink:href="#a"/><use xlink:href="#b" x="9.996"/><text y="1.67" class="f">%</text><text x="2.004" y="1.67" class="g">droid</text><text x="8.016" y="1.67" class="n">ap</text><text x="10.02" y="1.67" class="i">i</text><text x="12.024" y="1.67" class="i">21</text></svg><svg x="7676"><use xlink:href="#a"/><use xlink:href="#b" x="10.996"/><use xlink:href="#29"/></svg><svg x="7777"><use xlink:href="#a"/><use xlink:href="#b" x="11.996"/><use xlink:href="#29"/></svg><svg x="7878"><use xlink:href="#a"/><use xlink:href="#b" x="12.996"/><text y="1.67" class="f">%</text><text x="2.004" y="1.67" class="g">droid</text><text x="8.016" y="1.67" class="f">api</text><text x="12.024" y="1.67" class="f">2</text><text x="13.026" y="1.67" class="i">1</text></svg><svg x="7979"><use xlink:href="#a"/><use xlink:href="#b" x="13.996"/><use xlink:href="#30"/></svg><svg x="8080"><use xlink:href="#a"/><use xlink:href="#b" x="13.996"/><use xlink:href="#30"/></svg><svg x="8181"><use xlink:href="#a"/><use xlink:href="#b" x="13.996"/><use xlink:href="#30"/></svg><svg x="8282"><use xlink:href="#a"/><use xlink:href="#b" x="-.004" y="2.146"/><use xlink:href="#30"/></svg><svg x="8383"><use xlink:href="#a"/><use xlink:href="#b" x="-.004" y="6.488"/><use xlink:href="#30"/></svg><svg x="8484"><use xlink:href="#a"/><use xlink:href="#b" x="-.004" y="19.514"/><use xlink:href="#30"/><use xlink:href="#2" y="6.513"/><use xlink:href="#3" y="8.684"/><use xlink:href="#2" y="10.855"/><use xlink:href="#31" y="13.026"/><use xlink:href="#32" y="15.197"/><use xlink:href="#2" y="17.368"/></svg><svg x="8585"><use xlink:href="#a"/><use xlink:href="#b" x="-.004" y="21.685"/><use xlink:href="#30"/><use xlink:href="#2" y="6.513"/><use xlink:href="#3" y="8.684"/><use xlink:href="#2" y="10.855"/><use xlink:href="#31" y="13.026"/><use xlink:href="#32" y="15.197"/><use xlink:href="#2" y="17.368"/></svg><svg x="8686"><use xlink:href="#a"/><use xlink:href="#b" x="-.004" y="21.685"/><use xlink:href="#30"/><use xlink:href="#2" y="6.513"/><use xlink:href="#3" y="8.684"/><use xlink:href="#2" y="10.855"/><use xlink:href="#31" y="13.026"/><use xlink:href="#32" y="15.197"/><use xlink:href="#2" y="17.368"/></svg><svg x="8787"><use xlink:href="#a"/><use xlink:href="#b" x="1.996" y="21.685"/><use xlink:href="#30"/><use xlink:href="#2" y="6.513"/><use xlink:href="#3" y="8.684"/><use xlink:href="#2" y="10.855"/><use xlink:href="#31" y="13.026"/><use xlink:href="#32" y="15.197"/><use xlink:href="#2" y="17.368"/><use xlink:href="#12" y="21.71"/></svg><svg x="8888"><use xlink:href="#a"/><use xlink:href="#b" x="1.996" y="21.685"/><use xlink:href="#30"/><use xlink:href="#2" y="6.513"/><use xlink:href="#3" y="8.684"/><use xlink:href="#2" y="10.855"/><use xlink:href="#31" y="13.026"/><use xlink:href="#32" y="15.197"/><use xlink:href="#2" y="17.368"/><use xlink:href="#12" y="21.71"/></svg><svg x="8989"><use xlink:href="#a"/><use xlink:href="#b" x="1.996" y="21.685"/><use xlink:href="#30"/><use xlink:href="#2" y="6.513"/><use xlink:href="#3" y="8.684"/><use xlink:href="#2" y="10.855"/><use xlink:href="#31" y="13.026"/><use xlink:href="#32" y="15.197"/><use xlink:href="#2" y="17.368"/><use xlink:href="#12" y="21.71"/></svg><svg x="9090"><use xlink:href="#a"/><use xlink:href="#b" x="2.996" y="21.685"/><use xlink:href="#30"/><use xlink:href="#2" y="6.513"/><use xlink:href="#3" y="8.684"/><use xlink:href="#2" y="10.855"/><use xlink:href="#31" y="13.026"/><use xlink:href="#32" y="15.197"/><use xlink:href="#2" y="17.368"/><text y="23.38" class="f">%</text><text x="2.004" y="23.38" class="h">e</text><text x="3.006" y="23.38" class="i">xit</text></svg><svg x="9191"><use xlink:href="#a"/><use xlink:href="#b" x="3.996" y="21.685"/><use xlink:href="#30"/><use xlink:href="#2" y="6.513"/><use xlink:href="#3" y="8.684"/><use xlink:href="#2" y="10.855"/><use xlink:href="#31" y="13.026"/><use xlink:href="#32" y="15.197"/><use xlink:href="#2" y="17.368"/><text y="23.38" class="f">%</text><text x="2.004" y="23.38" class="g">ex</text><text x="4.008" y="23.38" class="i">it</text></svg><svg x="9292"><use xlink:href="#a"/><use xlink:href="#b" x="4.996" y="21.685"/><use xlink:href="#30"/><use xlink:href="#2" y="6.513"/><use xlink:href="#3" y="8.684"/><use xlink:href="#2" y="10.855"/><use xlink:href="#31" y="13.026"/><use xlink:href="#32" y="15.197"/><use xlink:href="#2" y="17.368"/><text y="23.38" class="f">%</text><text x="2.004" y="23.38" class="h">exi</text><text x="5.01" y="23.38" class="i">t</text></svg><svg x="9393"><use xlink:href="#a"/><use xlink:href="#b" x="5.996" y="21.685"/><use xlink:href="#30"/><use xlink:href="#2" y="6.513"/><use xlink:href="#3" y="8.684"/><use xlink:href="#2" y="10.855"/><use xlink:href="#31" y="13.026"/><use xlink:href="#32" y="15.197"/><use xlink:href="#2" y="17.368"/><use xlink:href="#33" y="21.71"/></svg><svg x="9494"><use xlink:href="#a"/><use xlink:href="#b" x="5.996" y="21.685"/><use xlink:href="#30"/><use xlink:href="#2" y="6.513"/><use xlink:href="#3" y="8.684"/><use xlink:href="#2" y="10.855"/><use xlink:href="#31" y="13.026"/><use xlink:href="#32" y="15.197"/><use xlink:href="#2" y="17.368"/><use xlink:href="#33" y="21.71"/></svg><svg x="9595"><use xlink:href="#a"/><use xlink:href="#b" x="5.996" y="21.685"/><use xlink:href="#30"/><use xlink:href="#2" y="6.513"/><use xlink:href="#3" y="8.684"/><use xlink:href="#2" y="10.855"/><use xlink:href="#31" y="13.026"/><use xlink:href="#32" y="15.197"/><use xlink:href="#2" y="17.368"/><use xlink:href="#33" y="21.71"/></svg><svg x="9696"><use xlink:href="#a"/><use xlink:href="#b" x="-.004" y="23.856"/><use xlink:href="#30"/><use xlink:href="#2" y="6.513"/><use xlink:href="#3" y="8.684"/><use xlink:href="#2" y="10.855"/><use xlink:href="#31" y="13.026"/><use xlink:href="#32" y="15.197"/><use xlink:href="#2" y="17.368"/><use xlink:href="#33" y="21.71"/></svg></svg></g></g></svg></svg>